<?xml version="1.0" encoding="UTF-8" standalone="no"?><svg xmlns="http://www.w3.org/2000/svg" xmlns:xlink="http://www.w3.org/1999/xlink" contentScriptType="application/ecmascript" contentStyleType="text/css" height="527px" preserveAspectRatio="none" style="width:1929px;height:527px;" version="1.1" viewBox="0 0 1929 527" width="1929px" zoomAndPan="magnify"><defs><filter height="300%" id="fk0oygvvxhf2i" width="300%" x="-1" y="-1"><feGaussianBlur result="blurOut" stdDeviation="2.0"/><feColorMatrix in="blurOut" result="blurOut2" type="matrix" values="0 0 0 0 0 0 0 0 0 0 0 0 0 0 0 0 0 0 .4 0"/><feOffset dx="4.0" dy="4.0" in="blurOut2" result="blurOut3"/><feBlend in="SourceGraphic" in2="blurOut3" mode="normal"/></filter></defs><g><!--MD5=[5d4cd377749310b66bf14896f5cd8d9b]
cluster model--><polygon fill="#DDDDDD" filter="url(#fk0oygvvxhf2i)" points="14,127,68,127,75,149.2969,1062,149.2969,1062,319,14,319,14,127" style="stroke: #000000; stroke-width: 1.5;"/><line style="stroke: #000000; stroke-width: 1.5;" x1="14" x2="75" y1="149.2969" y2="149.2969"/><text fill="#000000" font-family="sans-serif" font-size="14" font-weight="bold" lengthAdjust="spacingAndGlyphs" textLength="48" x="18" y="141.9951">model</text><!--MD5=[71971f99a41bb66cf321ce46bb59f738]
cluster Repository--><polygon fill="#DDDDDD" filter="url(#fk0oygvvxhf2i)" points="1080,362,1171,362,1178,384.2969,1907,384.2969,1907,515,1080,515,1080,362" style="stroke: #000000; stroke-width: 1.5;"/><line style="stroke: #000000; stroke-width: 1.5;" x1="1080" x2="1178" y1="384.2969" y2="384.2969"/><text fill="#000000" font-family="sans-serif" font-size="14" font-weight="bold" lengthAdjust="spacingAndGlyphs" textLength="85" x="1084" y="376.9951">Repository</text><!--MD5=[1f2cfc53d9d308f53762fd0fcbaa4873]
cluster Controller--><polygon fill="#DDDDDD" filter="url(#fk0oygvvxhf2i)" points="1080,146.5,1165,146.5,1172,168.7969,1907,168.7969,1907,299.5,1080,299.5,1080,146.5" style="stroke: #000000; stroke-width: 1.5;"/><line style="stroke: #000000; stroke-width: 1.5;" x1="1080" x2="1172" y1="168.7969" y2="168.7969"/><text fill="#000000" font-family="sans-serif" font-size="14" font-weight="bold" lengthAdjust="spacingAndGlyphs" textLength="79" x="1084" y="161.4951">Controller</text><!--MD5=[e59cf999063292dce8d6ea34dd10a338]
class user--><rect fill="#FEFECE" filter="url(#fk0oygvvxhf2i)" height="86.4141" id="user" style="stroke: #A80036; stroke-width: 1.5;" width="245" x="421.5" y="199"/><ellipse cx="525.75" cy="215" fill="#ADD1B2" rx="11" ry="11" style="stroke: #A80036; stroke-width: 1.0;"/><path d="M528.7188,220.6406 Q528.1406,220.9375 527.5,221.0859 Q526.8594,221.2344 526.1563,221.2344 Q523.6563,221.2344 522.3359,219.5859 Q521.0156,217.9375 521.0156,214.8125 Q521.0156,211.6875 522.3359,210.0313 Q523.6563,208.375 526.1563,208.375 Q526.8594,208.375 527.5078,208.5313 Q528.1563,208.6875 528.7188,208.9844 L528.7188,211.7031 Q528.0938,211.125 527.5,210.8516 Q526.9063,210.5781 526.2813,210.5781 Q524.9375,210.5781 524.25,211.6484 Q523.5625,212.7188 523.5625,214.8125 Q523.5625,216.9063 524.25,217.9766 Q524.9375,219.0469 526.2813,219.0469 Q526.9063,219.0469 527.5,218.7734 Q528.0938,218.5 528.7188,217.9219 L528.7188,220.6406 Z "/><text fill="#000000" font-family="sans-serif" font-size="12" lengthAdjust="spacingAndGlyphs" textLength="28" x="546.25" y="219.1543">user</text><line style="stroke: #A80036; stroke-width: 1.5;" x1="422.5" x2="665.5" y1="231" y2="231"/><ellipse cx="432.5" cy="242" fill="none" rx="3" ry="3" style="stroke: #038048; stroke-width: 1.0;"/><text fill="#000000" font-family="sans-serif" font-size="11" lengthAdjust="spacingAndGlyphs" textLength="44" x="441.5" y="245.2104">nombre</text><ellipse cx="432.5" cy="254.8047" fill="none" rx="3" ry="3" style="stroke: #038048; stroke-width: 1.0;"/><text fill="#000000" font-family="sans-serif" font-size="11" lengthAdjust="spacingAndGlyphs" textLength="56" x="441.5" y="258.0151">password</text><line style="stroke: #A80036; stroke-width: 1.5;" x1="422.5" x2="665.5" y1="264.6094" y2="264.6094"/><ellipse cx="432.5" cy="275.6094" fill="#84BE84" rx="3" ry="3" style="stroke: #038048; stroke-width: 1.0;"/><text fill="#000000" font-family="sans-serif" font-size="11" lengthAdjust="spacingAndGlyphs" textLength="219" x="441.5" y="278.8198">crear(string usuario, string password)</text><!--MD5=[06699d43cba9961aaaaa04768f19878c]
class album--><rect fill="#FEFECE" filter="url(#fk0oygvvxhf2i)" height="137.6328" id="album" style="stroke: #A80036; stroke-width: 1.5;" width="339" x="714.5" y="173"/><ellipse cx="860.75" cy="189" fill="#ADD1B2" rx="11" ry="11" style="stroke: #A80036; stroke-width: 1.0;"/><path d="M863.7188,194.6406 Q863.1406,194.9375 862.5,195.0859 Q861.8594,195.2344 861.1563,195.2344 Q858.6563,195.2344 857.3359,193.5859 Q856.0156,191.9375 856.0156,188.8125 Q856.0156,185.6875 857.3359,184.0313 Q858.6563,182.375 861.1563,182.375 Q861.8594,182.375 862.5078,182.5313 Q863.1563,182.6875 863.7188,182.9844 L863.7188,185.7031 Q863.0938,185.125 862.5,184.8516 Q861.9063,184.5781 861.2813,184.5781 Q859.9375,184.5781 859.25,185.6484 Q858.5625,186.7188 858.5625,188.8125 Q858.5625,190.9063 859.25,191.9766 Q859.9375,193.0469 861.2813,193.0469 Q861.9063,193.0469 862.5,192.7734 Q863.0938,192.5 863.7188,191.9219 L863.7188,194.6406 Z "/><text fill="#000000" font-family="sans-serif" font-size="12" lengthAdjust="spacingAndGlyphs" textLength="38" x="881.25" y="193.1543">album</text><line style="stroke: #A80036; stroke-width: 1.5;" x1="715.5" x2="1052.5" y1="205" y2="205"/><ellipse cx="725.5" cy="216" fill="none" rx="3" ry="3" style="stroke: #038048; stroke-width: 1.0;"/><text fill="#000000" font-family="sans-serif" font-size="11" lengthAdjust="spacingAndGlyphs" textLength="10" x="734.5" y="219.2104">id</text><ellipse cx="725.5" cy="228.8047" fill="none" rx="3" ry="3" style="stroke: #038048; stroke-width: 1.0;"/><text fill="#000000" font-family="sans-serif" font-size="11" lengthAdjust="spacingAndGlyphs" textLength="44" x="734.5" y="232.0151">nombre</text><ellipse cx="725.5" cy="241.6094" fill="none" rx="3" ry="3" style="stroke: #038048; stroke-width: 1.0;"/><text fill="#000000" font-family="sans-serif" font-size="11" lengthAdjust="spacingAndGlyphs" textLength="65" x="734.5" y="244.8198">descripcion</text><ellipse cx="725.5" cy="254.4141" fill="none" rx="3" ry="3" style="stroke: #038048; stroke-width: 1.0;"/><text fill="#000000" font-family="sans-serif" font-size="11" lengthAdjust="spacingAndGlyphs" textLength="43" x="734.5" y="257.6245">usuario</text><ellipse cx="725.5" cy="267.2188" fill="none" rx="3" ry="3" style="stroke: #038048; stroke-width: 1.0;"/><text fill="#000000" font-family="sans-serif" font-size="11" lengthAdjust="spacingAndGlyphs" textLength="23" x="734.5" y="270.4292">ruta</text><line style="stroke: #A80036; stroke-width: 1.5;" x1="715.5" x2="1052.5" y1="277.0234" y2="277.0234"/><ellipse cx="725.5" cy="288.0234" fill="#84BE84" rx="3" ry="3" style="stroke: #038048; stroke-width: 1.0;"/><text fill="#000000" font-family="sans-serif" font-size="11" lengthAdjust="spacingAndGlyphs" textLength="313" x="734.5" y="291.2339">crear(string usuario, string nombre,string descripcion)</text><ellipse cx="725.5" cy="300.8281" fill="#84BE84" rx="3" ry="3" style="stroke: #038048; stroke-width: 1.0;"/><text fill="#000000" font-family="sans-serif" font-size="11" lengthAdjust="spacingAndGlyphs" textLength="72" x="734.5" y="304.0386">borrar(int id)</text><!--MD5=[4834eb0b1425e2173992b868b7445219]
class imagen--><rect fill="#FEFECE" filter="url(#fk0oygvvxhf2i)" height="124.8281" id="imagen" style="stroke: #A80036; stroke-width: 1.5;" width="365" x="21.5" y="179.5"/><ellipse cx="176.75" cy="195.5" fill="#ADD1B2" rx="11" ry="11" style="stroke: #A80036; stroke-width: 1.0;"/><path d="M179.7188,201.1406 Q179.1406,201.4375 178.5,201.5859 Q177.8594,201.7344 177.1563,201.7344 Q174.6563,201.7344 173.3359,200.0859 Q172.0156,198.4375 172.0156,195.3125 Q172.0156,192.1875 173.3359,190.5313 Q174.6563,188.875 177.1563,188.875 Q177.8594,188.875 178.5078,189.0313 Q179.1563,189.1875 179.7188,189.4844 L179.7188,192.2031 Q179.0938,191.625 178.5,191.3516 Q177.9063,191.0781 177.2813,191.0781 Q175.9375,191.0781 175.25,192.1484 Q174.5625,193.2188 174.5625,195.3125 Q174.5625,197.4063 175.25,198.4766 Q175.9375,199.5469 177.2813,199.5469 Q177.9063,199.5469 178.5,199.2734 Q179.0938,199 179.7188,198.4219 L179.7188,201.1406 Z "/><text fill="#000000" font-family="sans-serif" font-size="12" lengthAdjust="spacingAndGlyphs" textLength="46" x="197.25" y="199.6543">imagen</text><line style="stroke: #A80036; stroke-width: 1.5;" x1="22.5" x2="385.5" y1="211.5" y2="211.5"/><ellipse cx="32.5" cy="222.5" fill="none" rx="3" ry="3" style="stroke: #038048; stroke-width: 1.0;"/><text fill="#000000" font-family="sans-serif" font-size="11" lengthAdjust="spacingAndGlyphs" textLength="44" x="41.5" y="225.7104">nombre</text><ellipse cx="32.5" cy="235.3047" fill="none" rx="3" ry="3" style="stroke: #038048; stroke-width: 1.0;"/><text fill="#000000" font-family="sans-serif" font-size="11" lengthAdjust="spacingAndGlyphs" textLength="35" x="41.5" y="238.5151">album</text><ellipse cx="32.5" cy="248.1094" fill="none" rx="3" ry="3" style="stroke: #038048; stroke-width: 1.0;"/><text fill="#000000" font-family="sans-serif" font-size="11" lengthAdjust="spacingAndGlyphs" textLength="35" x="41.5" y="251.3198">image</text><ellipse cx="32.5" cy="260.9141" fill="none" rx="3" ry="3" style="stroke: #038048; stroke-width: 1.0;"/><text fill="#000000" font-family="sans-serif" font-size="11" lengthAdjust="spacingAndGlyphs" textLength="31" x="41.5" y="264.1245">fecha</text><line style="stroke: #A80036; stroke-width: 1.5;" x1="22.5" x2="385.5" y1="270.7188" y2="270.7188"/><ellipse cx="32.5" cy="281.7188" fill="#84BE84" rx="3" ry="3" style="stroke: #038048; stroke-width: 1.0;"/><text fill="#000000" font-family="sans-serif" font-size="11" lengthAdjust="spacingAndGlyphs" textLength="339" x="41.5" y="284.9292">crear(string nombre, int albumId, String image, date fecha)</text><ellipse cx="32.5" cy="294.5234" fill="#84BE84" rx="3" ry="3" style="stroke: #038048; stroke-width: 1.0;"/><text fill="#000000" font-family="sans-serif" font-size="11" lengthAdjust="spacingAndGlyphs" textLength="204" x="41.5" y="297.7339">eliminar(String image,String album)</text><!--MD5=[093c210125347143eef5bb9199eae634]
class UserRepository--><rect fill="#FEFECE" filter="url(#fk0oygvvxhf2i)" height="73.6094" id="UserRepository" style="stroke: #A80036; stroke-width: 1.5;" width="285" x="1088.5" y="420.5"/><ellipse cx="1179.25" cy="436.5" fill="#ADD1B2" rx="11" ry="11" style="stroke: #A80036; stroke-width: 1.0;"/><path d="M1182.2188,442.1406 Q1181.6406,442.4375 1181,442.5859 Q1180.3594,442.7344 1179.6563,442.7344 Q1177.1563,442.7344 1175.8359,441.0859 Q1174.5156,439.4375 1174.5156,436.3125 Q1174.5156,433.1875 1175.8359,431.5313 Q1177.1563,429.875 1179.6563,429.875 Q1180.3594,429.875 1181.0078,430.0313 Q1181.6563,430.1875 1182.2188,430.4844 L1182.2188,433.2031 Q1181.5938,432.625 1181,432.3516 Q1180.4063,432.0781 1179.7813,432.0781 Q1178.4375,432.0781 1177.75,433.1484 Q1177.0625,434.2188 1177.0625,436.3125 Q1177.0625,438.4063 1177.75,439.4766 Q1178.4375,440.5469 1179.7813,440.5469 Q1180.4063,440.5469 1181,440.2734 Q1181.5938,440 1182.2188,439.4219 L1182.2188,442.1406 Z "/><text fill="#000000" font-family="sans-serif" font-size="12" lengthAdjust="spacingAndGlyphs" textLength="95" x="1199.75" y="440.6543">UserRepository</text><line style="stroke: #A80036; stroke-width: 1.5;" x1="1089.5" x2="1372.5" y1="452.5" y2="452.5"/><line style="stroke: #A80036; stroke-width: 1.5;" x1="1089.5" x2="1372.5" y1="460.5" y2="460.5"/><ellipse cx="1099.5" cy="471.5" fill="#84BE84" rx="3" ry="3" style="stroke: #038048; stroke-width: 1.0;"/><text fill="#000000" font-family="sans-serif" font-size="11" lengthAdjust="spacingAndGlyphs" textLength="259" x="1108.5" y="474.7104">crearUsuario(string usuario,string password)</text><ellipse cx="1099.5" cy="484.3047" fill="#84BE84" rx="3" ry="3" style="stroke: #038048; stroke-width: 1.0;"/><text fill="#000000" font-family="sans-serif" font-size="11" lengthAdjust="spacingAndGlyphs" textLength="219" x="1108.5" y="487.5151">loguin(string usuario,string password)</text><!--MD5=[bee7ba5dbbee475ad975304e90be6484]
class AlbumRepository--><rect fill="#FEFECE" filter="url(#fk0oygvvxhf2i)" height="73.6094" id="AlbumRepository" style="stroke: #A80036; stroke-width: 1.5;" width="225" x="1408.5" y="420.5"/><ellipse cx="1464.75" cy="436.5" fill="#ADD1B2" rx="11" ry="11" style="stroke: #A80036; stroke-width: 1.0;"/><path d="M1467.7188,442.1406 Q1467.1406,442.4375 1466.5,442.5859 Q1465.8594,442.7344 1465.1563,442.7344 Q1462.6563,442.7344 1461.3359,441.0859 Q1460.0156,439.4375 1460.0156,436.3125 Q1460.0156,433.1875 1461.3359,431.5313 Q1462.6563,429.875 1465.1563,429.875 Q1465.8594,429.875 1466.5078,430.0313 Q1467.1563,430.1875 1467.7188,430.4844 L1467.7188,433.2031 Q1467.0938,432.625 1466.5,432.3516 Q1465.9063,432.0781 1465.2813,432.0781 Q1463.9375,432.0781 1463.25,433.1484 Q1462.5625,434.2188 1462.5625,436.3125 Q1462.5625,438.4063 1463.25,439.4766 Q1463.9375,440.5469 1465.2813,440.5469 Q1465.9063,440.5469 1466.5,440.2734 Q1467.0938,440 1467.7188,439.4219 L1467.7188,442.1406 Z "/><text fill="#000000" font-family="sans-serif" font-size="12" lengthAdjust="spacingAndGlyphs" textLength="104" x="1485.25" y="440.6543">AlbumRepository</text><line style="stroke: #A80036; stroke-width: 1.5;" x1="1409.5" x2="1632.5" y1="452.5" y2="452.5"/><line style="stroke: #A80036; stroke-width: 1.5;" x1="1409.5" x2="1632.5" y1="460.5" y2="460.5"/><ellipse cx="1419.5" cy="471.5" fill="#84BE84" rx="3" ry="3" style="stroke: #038048; stroke-width: 1.0;"/><text fill="#000000" font-family="sans-serif" font-size="11" lengthAdjust="spacingAndGlyphs" textLength="199" x="1428.5" y="474.7104">getAlbumesUsuario(string usuario)</text><ellipse cx="1419.5" cy="484.3047" fill="#84BE84" rx="3" ry="3" style="stroke: #038048; stroke-width: 1.0;"/><text fill="#000000" font-family="sans-serif" font-size="11" lengthAdjust="spacingAndGlyphs" textLength="107" x="1428.5" y="487.5151">borrarAlbum(int id)</text><!--MD5=[c7d4ff52aacc902a56200f305e4f72ef]
class ImagenRepository--><rect fill="#FEFECE" filter="url(#fk0oygvvxhf2i)" height="99.2188" id="ImagenRepository" style="stroke: #A80036; stroke-width: 1.5;" width="230" x="1669" y="408"/><ellipse cx="1723.75" cy="424" fill="#ADD1B2" rx="11" ry="11" style="stroke: #A80036; stroke-width: 1.0;"/><path d="M1726.7188,429.6406 Q1726.1406,429.9375 1725.5,430.0859 Q1724.8594,430.2344 1724.1563,430.2344 Q1721.6563,430.2344 1720.3359,428.5859 Q1719.0156,426.9375 1719.0156,423.8125 Q1719.0156,420.6875 1720.3359,419.0313 Q1721.6563,417.375 1724.1563,417.375 Q1724.8594,417.375 1725.5078,417.5313 Q1726.1563,417.6875 1726.7188,417.9844 L1726.7188,420.7031 Q1726.0938,420.125 1725.5,419.8516 Q1724.9063,419.5781 1724.2813,419.5781 Q1722.9375,419.5781 1722.25,420.6484 Q1721.5625,421.7188 1721.5625,423.8125 Q1721.5625,425.9063 1722.25,426.9766 Q1722.9375,428.0469 1724.2813,428.0469 Q1724.9063,428.0469 1725.5,427.7734 Q1726.0938,427.5 1726.7188,426.9219 L1726.7188,429.6406 Z "/><text fill="#000000" font-family="sans-serif" font-size="12" lengthAdjust="spacingAndGlyphs" textLength="112" x="1744.25" y="428.1543">ImagenRepository</text><line style="stroke: #A80036; stroke-width: 1.5;" x1="1670" x2="1898" y1="440" y2="440"/><line style="stroke: #A80036; stroke-width: 1.5;" x1="1670" x2="1898" y1="448" y2="448"/><ellipse cx="1680" cy="459" fill="#84BE84" rx="3" ry="3" style="stroke: #038048; stroke-width: 1.0;"/><text fill="#000000" font-family="sans-serif" font-size="11" lengthAdjust="spacingAndGlyphs" textLength="180" x="1689" y="462.2104">getImagenesAlbum(int albumId)</text><ellipse cx="1680" cy="471.8047" fill="#84BE84" rx="3" ry="3" style="stroke: #038048; stroke-width: 1.0;"/><text fill="#000000" font-family="sans-serif" font-size="11" lengthAdjust="spacingAndGlyphs" textLength="138" x="1689" y="475.0151">getImagen(String name)</text><ellipse cx="1680" cy="484.6094" fill="#84BE84" rx="3" ry="3" style="stroke: #038048; stroke-width: 1.0;"/><text fill="#000000" font-family="sans-serif" font-size="11" lengthAdjust="spacingAndGlyphs" textLength="180" x="1689" y="487.8198">getImagenPorFecha(date fecha)</text><ellipse cx="1680" cy="497.4141" fill="#84BE84" rx="3" ry="3" style="stroke: #038048; stroke-width: 1.0;"/><text fill="#000000" font-family="sans-serif" font-size="11" lengthAdjust="spacingAndGlyphs" textLength="204" x="1689" y="500.6245">eliminar(String image,String album)</text><!--MD5=[29f97d496cbdc4ec81664c6d94dc9bf6]
class UserController--><rect fill="#FEFECE" filter="url(#fk0oygvvxhf2i)" height="99.2188" id="UserController" style="stroke: #A80036; stroke-width: 1.5;" width="285" x="1088.5" y="192.5"/><ellipse cx="1181.75" cy="208.5" fill="#ADD1B2" rx="11" ry="11" style="stroke: #A80036; stroke-width: 1.0;"/><path d="M1184.7188,214.1406 Q1184.1406,214.4375 1183.5,214.5859 Q1182.8594,214.7344 1182.1563,214.7344 Q1179.6563,214.7344 1178.3359,213.0859 Q1177.0156,211.4375 1177.0156,208.3125 Q1177.0156,205.1875 1178.3359,203.5313 Q1179.6563,201.875 1182.1563,201.875 Q1182.8594,201.875 1183.5078,202.0313 Q1184.1563,202.1875 1184.7188,202.4844 L1184.7188,205.2031 Q1184.0938,204.625 1183.5,204.3516 Q1182.9063,204.0781 1182.2813,204.0781 Q1180.9375,204.0781 1180.25,205.1484 Q1179.5625,206.2188 1179.5625,208.3125 Q1179.5625,210.4063 1180.25,211.4766 Q1180.9375,212.5469 1182.2813,212.5469 Q1182.9063,212.5469 1183.5,212.2734 Q1184.0938,212 1184.7188,211.4219 L1184.7188,214.1406 Z "/><text fill="#000000" font-family="sans-serif" font-size="12" lengthAdjust="spacingAndGlyphs" textLength="90" x="1202.25" y="212.6543">UserController</text><line style="stroke: #A80036; stroke-width: 1.5;" x1="1089.5" x2="1372.5" y1="224.5" y2="224.5"/><ellipse cx="1099.5" cy="235.5" fill="none" rx="3" ry="3" style="stroke: #038048; stroke-width: 1.0;"/><text fill="#000000" font-family="sans-serif" font-size="11" lengthAdjust="spacingAndGlyphs" textLength="86" x="1108.5" y="238.7104">userRepository</text><line style="stroke: #A80036; stroke-width: 1.5;" x1="1089.5" x2="1372.5" y1="245.3047" y2="245.3047"/><ellipse cx="1099.5" cy="256.3047" fill="#84BE84" rx="3" ry="3" style="stroke: #038048; stroke-width: 1.0;"/><text fill="#000000" font-family="sans-serif" font-size="11" lengthAdjust="spacingAndGlyphs" textLength="259" x="1108.5" y="259.5151">crearUsuario(string usuario,string password)</text><ellipse cx="1099.5" cy="269.1094" fill="#84BE84" rx="3" ry="3" style="stroke: #038048; stroke-width: 1.0;"/><text fill="#000000" font-family="sans-serif" font-size="11" lengthAdjust="spacingAndGlyphs" textLength="219" x="1108.5" y="272.3198">loguin(string usuario,string password)</text><ellipse cx="1099.5" cy="281.9141" fill="#84BE84" rx="3" ry="3" style="stroke: #038048; stroke-width: 1.0;"/><text fill="#000000" font-family="sans-serif" font-size="11" lengthAdjust="spacingAndGlyphs" textLength="162" x="1108.5" y="285.1245">cerrarSesion(string usuario)</text><!--MD5=[b6413be98b3dd5fa95028b50c395a5ce]
class AlbumController--><rect fill="#FEFECE" filter="url(#fk0oygvvxhf2i)" height="86.4141" id="AlbumController" style="stroke: #A80036; stroke-width: 1.5;" width="225" x="1408.5" y="199"/><ellipse cx="1467.25" cy="215" fill="#ADD1B2" rx="11" ry="11" style="stroke: #A80036; stroke-width: 1.0;"/><path d="M1470.2188,220.6406 Q1469.6406,220.9375 1469,221.0859 Q1468.3594,221.2344 1467.6563,221.2344 Q1465.1563,221.2344 1463.8359,219.5859 Q1462.5156,217.9375 1462.5156,214.8125 Q1462.5156,211.6875 1463.8359,210.0313 Q1465.1563,208.375 1467.6563,208.375 Q1468.3594,208.375 1469.0078,208.5313 Q1469.6563,208.6875 1470.2188,208.9844 L1470.2188,211.7031 Q1469.5938,211.125 1469,210.8516 Q1468.4063,210.5781 1467.7813,210.5781 Q1466.4375,210.5781 1465.75,211.6484 Q1465.0625,212.7188 1465.0625,214.8125 Q1465.0625,216.9063 1465.75,217.9766 Q1466.4375,219.0469 1467.7813,219.0469 Q1468.4063,219.0469 1469,218.7734 Q1469.5938,218.5 1470.2188,217.9219 L1470.2188,220.6406 Z "/><text fill="#000000" font-family="sans-serif" font-size="12" lengthAdjust="spacingAndGlyphs" textLength="99" x="1487.75" y="219.1543">AlbumController</text><line style="stroke: #A80036; stroke-width: 1.5;" x1="1409.5" x2="1632.5" y1="231" y2="231"/><ellipse cx="1419.5" cy="242" fill="none" rx="3" ry="3" style="stroke: #038048; stroke-width: 1.0;"/><text fill="#000000" font-family="sans-serif" font-size="11" lengthAdjust="spacingAndGlyphs" textLength="95" x="1428.5" y="245.2104">albumRepository</text><line style="stroke: #A80036; stroke-width: 1.5;" x1="1409.5" x2="1632.5" y1="251.8047" y2="251.8047"/><ellipse cx="1419.5" cy="262.8047" fill="#84BE84" rx="3" ry="3" style="stroke: #038048; stroke-width: 1.0;"/><text fill="#000000" font-family="sans-serif" font-size="11" lengthAdjust="spacingAndGlyphs" textLength="199" x="1428.5" y="266.0151">getAlbumesUsuario(string usuario)</text><ellipse cx="1419.5" cy="275.6094" fill="#84BE84" rx="3" ry="3" style="stroke: #038048; stroke-width: 1.0;"/><text fill="#000000" font-family="sans-serif" font-size="11" lengthAdjust="spacingAndGlyphs" textLength="107" x="1428.5" y="278.8198">borrarAlbum(int id)</text><!--MD5=[b1a00d80a119df0c5b608f1fbee8c11c]
class ImagenController--><rect fill="#FEFECE" filter="url(#fk0oygvvxhf2i)" height="99.2188" id="ImagenController" style="stroke: #A80036; stroke-width: 1.5;" width="230" x="1669" y="192.5"/><ellipse cx="1726.25" cy="208.5" fill="#ADD1B2" rx="11" ry="11" style="stroke: #A80036; stroke-width: 1.0;"/><path d="M1729.2188,214.1406 Q1728.6406,214.4375 1728,214.5859 Q1727.3594,214.7344 1726.6563,214.7344 Q1724.1563,214.7344 1722.8359,213.0859 Q1721.5156,211.4375 1721.5156,208.3125 Q1721.5156,205.1875 1722.8359,203.5313 Q1724.1563,201.875 1726.6563,201.875 Q1727.3594,201.875 1728.0078,202.0313 Q1728.6563,202.1875 1729.2188,202.4844 L1729.2188,205.2031 Q1728.5938,204.625 1728,204.3516 Q1727.4063,204.0781 1726.7813,204.0781 Q1725.4375,204.0781 1724.75,205.1484 Q1724.0625,206.2188 1724.0625,208.3125 Q1724.0625,210.4063 1724.75,211.4766 Q1725.4375,212.5469 1726.7813,212.5469 Q1727.4063,212.5469 1728,212.2734 Q1728.5938,212 1729.2188,211.4219 L1729.2188,214.1406 Z "/><text fill="#000000" font-family="sans-serif" font-size="12" lengthAdjust="spacingAndGlyphs" textLength="107" x="1746.75" y="212.6543">ImagenController</text><line style="stroke: #A80036; stroke-width: 1.5;" x1="1670" x2="1898" y1="224.5" y2="224.5"/><ellipse cx="1680" cy="235.5" fill="none" rx="3" ry="3" style="stroke: #038048; stroke-width: 1.0;"/><text fill="#000000" font-family="sans-serif" font-size="11" lengthAdjust="spacingAndGlyphs" textLength="102" x="1689" y="238.7104">imagenRepository</text><line style="stroke: #A80036; stroke-width: 1.5;" x1="1670" x2="1898" y1="245.3047" y2="245.3047"/><ellipse cx="1680" cy="256.3047" fill="#84BE84" rx="3" ry="3" style="stroke: #038048; stroke-width: 1.0;"/><text fill="#000000" font-family="sans-serif" font-size="11" lengthAdjust="spacingAndGlyphs" textLength="180" x="1689" y="259.5151">getImagenesAlbum(int albumId)</text><ellipse cx="1680" cy="269.1094" fill="#84BE84" rx="3" ry="3" style="stroke: #038048; stroke-width: 1.0;"/><text fill="#000000" font-family="sans-serif" font-size="11" lengthAdjust="spacingAndGlyphs" textLength="138" x="1689" y="272.3198">getImagen(String name)</text><ellipse cx="1680" cy="281.9141" fill="#84BE84" rx="3" ry="3" style="stroke: #038048; stroke-width: 1.0;"/><text fill="#000000" font-family="sans-serif" font-size="11" lengthAdjust="spacingAndGlyphs" textLength="204" x="1689" y="285.1245">eliminar(String image,String album)</text><!--MD5=[30421eed31a3e6d26f6be2799ecc8f43]
reverse link user to album--><path d="M679.9503,242 C691.2902,242 702.8408,242 714.3891,242 " fill="none" id="user&lt;-album" style="stroke: #A80036; stroke-width: 1.0;"/><polygon fill="#A80036" points="666.7478,242,672.7478,246,678.7478,242,672.7478,238,666.7478,242" style="stroke: #A80036; stroke-width: 1.0;"/><polygon fill="#000000" points="686,231,692,234,686,237,686,231" style="stroke: #000000; stroke-width: 1.0;"/><!--MD5=[e2e10936f485277fc7759eca1e8a93eb]
link imagen to album--><path d="M295.8487,179.4814 C328.5305,160.6921 366.5425,142.5444 404,133 C524.5912,102.2725 563.4088,102.2725 684,133 C712.7903,140.336 741.9081,152.7544 768.6815,166.6403 " fill="none" id="imagen-&gt;album" style="stroke: #A80036; stroke-width: 1.0;"/><polygon fill="#A80036" points="780.4048,172.8895,776.9917,166.5373,769.8154,167.2446,773.2285,173.5969,780.4048,172.8895" style="stroke: #A80036; stroke-width: 1.0;"/><polygon fill="#000000" points="551.5,111,545.5,114,551.5,117,551.5,111" style="stroke: #000000; stroke-width: 1.0;"/><!--MD5=[1b15dd9bfee6a54cc2138aaf23bd94f1]
link UserController to UserRepository--><path d="M1231,291.7106 C1231,330.9899 1231,384.9364 1231,420.483 " fill="none" id="UserController-UserRepository" style="stroke: #A80036; stroke-width: 1.0;"/><polygon fill="#000000" points="1233,346,1236,352,1239,346,1233,346" style="stroke: #000000; stroke-width: 1.0;"/><!--MD5=[ca906cd1915c1a6c3c1769d926d25c4e]
link AlbumController to AlbumRepository--><path d="M1521,285.0917 C1521,324.6426 1521,382.6373 1521,420.2337 " fill="none" id="AlbumController-AlbumRepository" style="stroke: #A80036; stroke-width: 1.0;"/><polygon fill="#000000" points="1523,346,1526,352,1529,346,1523,346" style="stroke: #000000; stroke-width: 1.0;"/><!--MD5=[b868757e39596a771871f81872d214bc]
link AlbumController to ImagenRepository--><path d="M1573.5899,285.0917 C1616.7618,320.4664 1677.9404,370.5956 1723.2083,407.6878 " fill="none" id="AlbumController-ImagenRepository" style="stroke: #A80036; stroke-width: 1.0;"/><polygon fill="#000000" points="1654,346,1660,349,1654,352,1654,346" style="stroke: #000000; stroke-width: 1.0;"/><!--MD5=[14f6c1ea0c6e7028d8fb48d5e0e7c347]
link ImagenController to ImagenRepository--><path d="M1784,291.7106 C1784,326.5151 1784,372.8351 1784,407.6666 " fill="none" id="ImagenController-ImagenRepository" style="stroke: #A80036; stroke-width: 1.0;"/><polygon fill="#000000" points="1786,346,1789,352,1792,346,1786,346" style="stroke: #000000; stroke-width: 1.0;"/><!--MD5=[700ce1e77f4ab7d099594c9a844fbba7]
@startuml
package "model" #DDDDDD {
  class user
  class album
  class imagen
}

package "Repository" #DDDDDD {
  class UserRepository
  class AlbumRepository
  class ImagenRepository
}

package "Controller" #DDDDDD {
  class UserController
  class AlbumController
  class ImagenController
}



class user{
  +nombre
  +password
  +crear(string usuario, string password)
}

class album{
  +id
  +nombre
  +descripcion
  +usuario
  +ruta
  +crear(string usuario, string nombre,string descripcion)
  +borrar(int id)
}

class imagen{
  +nombre
  +album
  +image
  +fecha
  +crear(string nombre, int albumId, String image, date fecha)
  +eliminar(String image,String album)
}

class UserRepository{
  +crearUsuario(string usuario,string password)
  +loguin(string usuario,string password)
}
class UserController{
  +userRepository
  +crearUsuario(string usuario,string password)
  +loguin(string usuario,string password)
  +cerrarSesion(string usuario)
}

class AlbumRepository{
  +getAlbumesUsuario(string usuario)
  +borrarAlbum(int id)
}

class AlbumController{
  +albumRepository
  +getAlbumesUsuario(string usuario)
  +borrarAlbum(int id)
}

class ImagenRepository{
  +getImagenesAlbum(int albumId)
  +getImagen(String name)
  +getImagenPorFecha(date fecha)
  +eliminar(String image,String album)
}

class ImagenController{
  +imagenRepository
  +getImagenesAlbum(int albumId)
  +getImagen(String name)
  +eliminar(String image,String album)
}



user *- album : >

imagen -* album : < 

UserController- - UserRepository: > 
AlbumController- - AlbumRepository: > 
AlbumController- - ImagenRepository: > 
ImagenController- - ImagenRepository: >
@enduml

PlantUML version 1.2019.12(Sun Nov 03 10:24:54 UTC 2019)
(GPL source distribution)
Java Runtime: OpenJDK Runtime Environment
JVM: OpenJDK 64-Bit Server VM
Java Version: 1.8.0_232-heroku-b09
Operating System: Linux
Default Encoding: UTF-8
Language: en
Country: US
--></g></svg>